# AST/ASF file generated using VICON BodyLanguage
# -----------------------------------------------
:version 1.10
:name VICON
:units
  mass 1.0
  length 0.45
  angle deg
:documentation
   .ast/.asf automatically generated from VICON data using
   VICON BodyBuilder and BodyLanguage model FoxedUp or BRILLIANT.MOD
:root
   order TX TY TZ RX RY RZ
   axis XYZ
   position 0 0 0  
   orientation 0 0 0 
:bonedata
  begin
     id 1 
     name lhipjoint
     direction 0.734343 -0.627749 0.258209 
     length 2.5437 
     axis 0 0 0  XYZ
  end
  begin
     id 2 
     name lfemur
     direction 0.34202 -0.939693 0  
     length 6.7391  
     axis 0 0 20  XYZ
    dof rx ry rz
    limits (-160.0 20.0)
           (-70.0 70.0)
           (-60.0 70.0)
  end
  begin
     id 3 
     name ltibia
     direction 0.34202 -0.939693 0   
     length 7.21536   
     axis 0 0 20   XYZ
    dof rx
    limits (-10.0 170.0)
  end
  begin
     id 4 
     name lfoot
     direction 0.0489572 -0.134509 0.989702   
     length 1.61313   
     axis -90 7.62852e-016 20   XYZ
    dof rx rz
    limits (-45.0 90.0)
           (-70.0 20.0)
  end
  begin
     id 5 
     name ltoes
     direction 1.53451e-011 -4.21692e-011 1   
     length 0.823104   
     axis -90 7.62852e-016 20   XYZ
    dof rx
    limits (-90.0 20.0)
  end
  begin
     id 6 
     name rhipjoint
     direction -0.746398 -0.615468 0.253157   
     length 2.59446  
     axis 0 0 0  XYZ 
  end
  begin
     id 7 
     name rfemur
     direction -0.34202 -0.939693 0   
     length 6.7075   
     axis 0 0 -20   XYZ
    dof rx ry rz
    limits (-160.0 20.0)
           (-70.0 70.0)
           (-70.0 60.0)
  end
  begin
     id 8 
     name rtibia
     direction -0.34202 -0.939693 0   
     length 7.27262   
     axis 0 0 -20   XYZ
    dof rx
    limits (-10.0 170.0)
 end
 begin
     id 9 
     name rfoot
     direction -0.0455203 -0.125066 0.991104   
     length 1.91095  
     axis -90 -7.62852e-016 -20   XYZ
    dof rx rz
    limits (-45.0 90.0)
           (-20.0 70.0)
  end
  begin
     id 10 
     name rtoes
     direction -1.53601e-011 -4.21913e-011 1   
     length 0.969037   
     axis -90 -7.62852e-016 -20   XYZ
    dof rx
    limits (-90.0 20.0)
  end
  begin
     id 11 
     name lowerback
     direction 0.0181546 0.999122 -0.0377542   
     length 1.99916   
     axis 0 0 0   XYZ
    dof rx ry rz
    limits (-20.0 45.0)
           (-30.0 30.0)
           (-30.0 30.0)
  end
  begin
     id 12 
     name upperback
     direction 0.0203486 0.99589 0.0882534   
     length 1.951   
     axis 0 0 0   XYZ
    dof rx ry rz
    limits (-20.0 45.0)
           (-30.0 30.0)
           (-30.0 30.0)
  end
  begin
     id 13 
     name thorax
     direction 0.0131685 0.994241 0.106355   
     length 1.97461   
     axis 0 0 0   XYZ
    dof rx ry rz
    limits (-20.0 45.0)
           (-30.0 30.0)
           (-30.0 30.0)
  end
  begin
     id 14 
     name lowerneck
     direction -0.0281395 0.999325 0.023617   
     length 1.7959   
     axis 0 0 0   XYZ
    dof rx ry rz
    limits (-20.0 45.0)
           (-30.0 30.0)
           (-30.0 30.0)
  end
  begin
     id 15 
     name upperneck
     direction 0.0288721 0.991984 -0.123019   
     length 1.79917   
     axis 0 0 0   XYZ
    dof rx ry rz
    limits (-20.0 45.0)
           (-30.0 30.0)
           (-30.0 30.0)
  end
  begin
     id 16
     name head
     direction 0.0133797 0.998944 -0.0439492  
     length 1.80902  
     axis 0 0 0   XYZ
    dof rx ry rz
    limits (-20.0 45.0)
           (-30.0 30.0)
           (-30.0 30.0)
  end
  begin
     id 17 
     name lclavicle
     direction 0.919195 0.377107 0.113449  
     length 3.17815  
     axis 0 0 0   XYZ
    dof ry rz
    limits (-20.0 10.0)
           (0.0 20.0)
  end
  begin
     id 18 
     name lhumerus
     direction 1 -4.48959e-011 2.13129e-027   
     length 4.84137   
     axis 180 -30 -90   XYZ
    dof rx ry rz
    limits (-60.0 90.0)
           (-90.0 90.0)
           (-90.0 90.0)
  end
  begin
     id 19
     name lradius
     direction 1 -4.48957e-011 -6.30627e-028   
     length 3.2452   
     axis 180 -30 -90   XYZ
    dof rx
    limits (-10.0 170.0)
  end
  begin
     id 20
     name lwrist
     direction 1 -4.4901e-011 9.13299e-027   
     length 1.6226   
     axis -6.84618e-015 90 90   XYZ
    dof ry
    limits (-180.0 0.0)
 end
  begin
     id 21 
     name lhand
     direction 1 -4.48816e-011 1.82293e-026   
     length 0.521221   
     axis -1.16502e-014 90 90   XYZ
    dof rx rz
    limits (-90.0 90.0)
           (-45.0 45.0)
  end
  begin
     id 22 
     name lfingers
     direction 1 -4.49108e-011 3.65687e-026   
     length 0.420221   
     axis -2.33008e-014 90 90   XYZ
    dof rx
    limits (0.0 90.0)
  end
  begin
     id 23
     name lthumb
     direction 0.707107 -6.34943e-011 0.707107   
     length 0.603356   
     axis -90 45 5.69224e-014   XYZ
    dof rx rz
    limits (-45.0 45.0)
           (-45.0 45.0)
  end
  begin
     id 24 
     name rclavicle
     direction -0.90847 0.38596 0.160368   
     length 3.12973  
     axis 0 0 0   XYZ 
    dof ry rz
    limits (-10.0 20.0)
           (-20.0 0.0)
  end
  begin
     id 25 
     name rhumerus
     direction -1 -4.48974e-011 4.47268e-028  
     length 4.72284   
     axis 180 30 90   XYZ
    dof rx ry rz
    limits (-90.0 60.0)
           (-90.0 90.0)
           (-90.0 90.0)
  end
  begin
     id 26 
     name rradius
     direction -1 -4.48969e-011 3.43203e-027   
     length 3.23459   
     axis 180 30 90   XYZ
    dof rx
    limits (-10.0 170.0)
  end
  begin
     id 27 
     name rwrist
     direction -1 -4.48969e-011 9.12911e-027   
     length 1.6173   
     axis -6.84618e-015 -90 -90   XYZ
    dof ry
    limits (-180.0 0.0)
  end
  begin
     id 28
     name rhand
     direction -1 -4.49194e-011 1.83006e-026   
     length 0.307416   
     axis -1.16502e-014 -90 -90   XYZ
    dof rx rz
    limits (-90.0 90.0)
           (-45.0 45.0)
  end
  begin
     id 29
     name rfingers
     direction -1 -4.48423e-011 3.63103e-026   
     length 0.247847   
     axis -2.33008e-014 -90 -90   XYZ
    dof rx
    limits (0.0 90.0)
  end
  begin
     id 30
     name rthumb
     direction -0.707107 -6.34802e-011 0.707107   
     length 0.35586   
     axis -90 -45 -5.69224e-014   XYZ
    dof rx rz
    limits (-45.0 45.0)
           (-45.0 45.0)
  end
:hierarchy
  begin
    root lhipjoint rhipjoint lowerback
    lhipjoint lfemur
    lfemur ltibia
    ltibia lfoot
    lfoot ltoes
    rhipjoint rfemur
    rfemur rtibia
    rtibia rfoot
    rfoot rtoes
    lowerback upperback
    upperback thorax
    thorax lowerneck lclavicle rclavicle
    lowerneck upperneck
    upperneck head
    lclavicle lhumerus
    lhumerus lradius
    lradius lwrist
    lwrist lhand lthumb
    lhand lfingers
    rclavicle rhumerus
    rhumerus rradius
    rradius rwrist
    rwrist rhand rthumb
    rhand rfingers
  end

#!OML:ASF H:\Terrain\Patient Classification 1\Animal1\Tuesday\Animal1.ASF
:FULLY-SPECIFIED
:DEGREES
1281
root 23.2061 16.9032 -14.0445 -167.405 -16.3434 -181.099
lowerback -8.72134 -0.116868 4.20411
upperback -2.57226 -0.88649 3.01264
thorax 2.21423 -0.553711 0.656269
lowerneck 0.993635 1.8495 -6.45635
upperneck 4.83989 2.2581 3.49898
head 1.23403 1.02158 2.23491
rclavicle 2.70347e-014 6.20208e-014
rhumerus -36.4385 -18.8794 -72.4305
rradius 10.8799
rwrist -3.30362
rhand -10.3177 17.7013
rfingers 7.12502
rthumb 15.6777 -11.6836
lclavicle 2.70347e-014 6.20208e-014
lhumerus -39.5502 22.8791 75.8251
lradius 10.2665
lwrist -36.1849
lhand 46.4784 37.0367
lfingers 7.12502
lthumb 67.495 39.4212
rfemur -16.2375 5.54312 23.4797
rtibia 31.2563
rfoot -0.606901 -38.9296
rtoes -1.58017
lfemur -14.3252 -3.42749 -26.615
ltibia 23.8402
lfoot -22.2084 27.0329
ltoes 47.3622
1282
root 23.2011 16.9081 -14.1485 -167.523 -16.9228 -181.004
lowerback -8.67076 -0.207589 3.99618
upperback -2.64952 -0.979519 2.98865
thorax 2.10735 -0.601617 0.739036
lowerneck 0.966831 1.7344 -6.61906
upperneck 4.95118 2.09199 3.77361
head 1.28026 0.937106 2.35743
rclavicle 2.42517e-014 -2.8625e-014
rhumerus -36.8578 -18.7829 -72.4791
rradius 11.1146
rwrist -3.55912
rhand -10.6769 20.133
rfingers 7.12502
rthumb 15.3318 -9.27865
lclavicle 2.42517e-014 -2.8625e-014
lhumerus -39.456 22.7911 75.8344
lradius 9.96589
lwrist -37.6297
lhand 46.2752 36.6148
lfingers 7.12502
lthumb 67.345 39.3292
rfemur -15.6379 5.84372 23.7791
rtibia 31.1874
rfoot -1.01273 -39.5937
rtoes -0.769153
lfemur -13.979 -4.23861 -26.5103
ltibia 21.9309
lfoot -22.4914 27.9683
ltoes 47.1593
1283
root 23.1924 16.9226 -14.2578 -167.74 -17.6196 -180.473
lowerback -8.76859 -0.248951 4.20135
upperback -2.68021 -1.07019 3.08876
thorax 2.12678 -0.650896 0.717714
lowerneck 0.926204 1.59226 -6.75612
upperneck 5.05811 1.89663 3.87944
head 1.33138 0.836276 2.41939
rclavicle 2.27608e-014 -1.27222e-014
rhumerus -37.0739 -18.203 -72.8821
rradius 11.3493
rwrist -4.64324
rhand -8.00903 17.1835
rfingers 7.12502
rthumb 17.9002 -12.0127
lclavicle 2.27608e-014 -1.27222e-014
lhumerus -39.3381 22.679 75.9536
lradius 9.83458
lwrist -39.018
lhand 45.7722 36.4202
lfingers 7.12502
lthumb 66.9706 39.9318
rfemur -14.9366 6.25925 24.5163
rtibia 30.9483
rfoot -3.02255 -40.1757
rtoes 3.09061
lfemur -13.8007 -4.6062 -26.0563
ltibia 20.3301
lfoot -22.327 28.6059
ltoes 46.7075
1284
root 23.1844 16.9385 -14.3665 -167.919 -18.1955 -179.792
lowerback -9.01513 -0.231615 4.48149
upperback -2.69499 -1.1079 3.22412
thorax 2.24515 -0.67445 0.694609
lowerneck 1.01743 1.43334 -6.80791
upperneck 4.99037 1.68325 3.75489
head 1.30637 0.726991 2.38456
rclavicle -6.39093e-014 -1.59028e-015
rhumerus -36.9222 -17.1278 -73.6272
rradius 11.2712
rwrist -6.02066
rhand -6.09459 14.1392
rfingers 7.12502
rthumb 19.7414 -14.8783
lclavicle -6.39093e-014 -1.59028e-015
lhumerus -39.067 22.6515 76.1824
lradius 9.55075
lwrist -40.0776
lhand 45.2335 36.207
lfingers 7.12502
lthumb 66.5644 40.5432
rfemur -14.3692 6.47985 25.4082
rtibia 30.6771
rfoot -0.30832 -40.4338
rtoes -1.90034
lfemur -13.7754 -4.39086 -25.6119
ltibia 18.8612
lfoot -21.1661 29.881
ltoes 45.3359
1285
root 23.1687 16.9647 -14.47 -167.965 -18.6747 -179.429
lowerback -9.282 -0.175392 4.56754
upperback -2.74024 -1.0601 3.16727
thorax 2.34413 -0.651298 0.59014
lowerneck 0.962303 1.30661 -6.84894
upperneck 5.26148 1.50588 3.74685
head 1.41317 0.630594 2.39271
rclavicle -7.4097e-014 6.36111e-015
rhumerus -36.6895 -16.2946 -74.3511
rradius 10.8389
rwrist -6.89663
rhand -6.16438 14.4749
rfingers 7.12502
rthumb 19.6743 -14.5495
lclavicle -7.4097e-014 6.36111e-015
lhumerus -38.7482 22.4798 76.39
lradius 9.31693
lwrist -40.8165
lhand 45.2021 35.7523
lfingers 7.12502
lthumb 66.5406 40.1357
rfemur -13.9038 6.77474 25.8894
rtibia 30.4269
rfoot 2.91658 -40.3184
rtoes -8.71481
lfemur -13.8151 -4.05944 -25.6146
ltibia 17.57
lfoot -19.7315 31.3257
ltoes 42.7642
1286
root 23.1444 17.0033 -14.5718 -167.819 -19.0166 -179.446
lowerback -9.58334 -0.116683 4.35073
upperback -2.82623 -0.96436 2.93128
thorax 2.42248 -0.601029 0.474937
lowerneck 0.882275 1.21976 -6.81238
upperneck 5.61721 1.37801 3.77497
head 1.54923 0.558932 2.40004
rclavicle -1.2424e-014 4.45278e-014
rhumerus -36.6756 -16.3802 -74.576
rradius 10.3483
rwrist -6.53527
rhand -6.21648 14.8742
rfingers 7.12502
rthumb 19.6242 -14.1554
lclavicle -1.2424e-014 4.45278e-014
lhumerus -38.6735 22.1618 76.3917
lradius 9.42232
lwrist -41.168
lhand 46.2566 35.5129
lfingers 7.12502
lthumb 67.3313 38.2572
rfemur -13.5669 7.16278 25.7977
rtibia 30.2582
rfoot -2.41701 -40.4288
rtoes 0.0231711
lfemur -13.7784 -3.84887 -26.0097
ltibia 16.2409
lfoot -18.4354 32.0006
ltoes 40.7014
